<svg version="1.1" id="Layer_1" xmlns="http://www.w3.org/2000/svg" xmlns:xlink="http://www.w3.org/1999/xlink" x="0px" y="0px"
	 width="100%" viewBox="0 0 64 64" enable-background="new 0 0 64 64" xml:space="preserve">
<path fill="#3A8EB8" opacity="1.000000" stroke="none" 
	d="
M10.734730,1.306180 
	C12.388889,1.000000 13.777778,1.000000 15.583334,1.000000 
	C16.643652,1.621714 17.221567,2.333437 18.396214,2.698816 
	C18.792686,2.919242 18.940552,3.009367 19.539886,3.167010 
	C19.991356,3.234527 20.385977,2.932159 20.546463,2.724052 
	C20.838541,2.392035 20.970137,2.268124 21.327879,1.986040 
	C21.874727,1.637006 22.212290,1.482468 22.782110,1.179439 
	C23.444445,1.000000 23.888889,1.000000 24.666668,1.000000 
	C25.562420,1.607683 26.145245,2.201529 26.412376,3.444486 
	C26.469252,4.680487 26.450354,5.502795 26.239326,6.716685 
	C24.927509,8.842195 23.697741,10.564699 22.432552,12.244261 
	C20.920040,14.252143 18.984938,15.780065 15.779736,14.526300 
	C13.706861,13.520677 12.202640,12.425474 10.935158,10.467017 
	C9.909776,8.375443 10.224267,6.438361 9.712394,4.237473 
	C9.656282,2.999854 9.918099,2.252313 10.734730,1.306180 
z"/>
<path fill="#398CB9" opacity="1.000000" stroke="none" 
	d="
M64.687111,40.727234 
	C65.000000,41.444447 65.000000,41.888889 65.000000,42.666668 
	C61.093201,45.622528 62.328857,48.536858 64.758690,51.752628 
	C65.000000,52.444447 65.000000,52.888889 65.000000,53.666668 
	C64.200264,54.768742 63.362625,55.466766 61.774529,55.486645 
	C59.827007,55.197411 58.257275,55.053787 56.389328,54.456642 
	C55.280239,54.156013 54.669304,53.737038 53.896080,52.931370 
	C53.125019,51.924774 52.816822,51.041241 51.939892,50.123322 
	C51.085918,49.112808 50.838882,48.221462 50.829338,46.901302 
	C50.931839,46.313896 51.003738,46.084511 51.258873,45.544479 
	C52.287033,44.402031 53.251961,43.671291 53.928169,42.212517 
	C54.595837,41.282520 55.049526,40.656734 56.027786,39.995361 
	C58.273918,39.354523 60.186634,39.518585 62.503883,39.634766 
	C63.447048,39.858356 63.934082,40.111233 64.687111,40.727234 
z"/>
<path fill="#388BB9" opacity="1.000000" stroke="none" 
	d="
M1.332960,25.299730 
	C1.000000,24.250000 1.000000,23.500000 1.000000,22.375000 
	C1.379112,21.637903 1.746673,21.264769 2.216251,20.649580 
	C2.438068,20.099510 2.469099,19.757669 2.398307,19.142994 
	C2.115800,18.341293 1.814262,17.855259 1.212804,17.212128 
	C1.000000,15.611111 1.000000,14.222222 1.000000,12.416666 
	C3.134878,9.748141 5.606936,11.075348 8.380342,11.438846 
	C10.565831,11.879847 11.698422,13.034986 12.695414,14.934741 
	C12.902818,15.581212 12.952273,15.848147 12.981916,16.518349 
	C11.837608,18.977346 11.048449,21.165939 10.242121,23.785828 
	C9.644996,24.886904 9.099807,25.520330 8.024586,26.235725 
	C5.542708,26.911018 3.526722,26.800547 1.332960,25.299730 
z"/>
<path fill="#388BB9" opacity="1.000000" stroke="none" 
	d="
M1.318790,54.270054 
	C1.000000,52.611111 1.000000,51.222221 1.000000,49.416664 
	C1.643972,48.397812 2.170691,47.713737 2.634866,46.588398 
	C4.431803,44.769718 2.976022,42.356770 4.619326,40.498833 
	C5.488671,39.798664 6.197691,39.635738 7.316431,39.561180 
	C8.749719,39.528034 9.654257,39.914024 10.737671,40.814415 
	C11.185195,41.217472 11.343015,41.397640 11.684418,41.879684 
	C12.261588,42.973587 12.321295,43.921318 13.229687,44.827362 
	C13.600380,45.261662 13.730429,45.454098 13.996008,45.973076 
	C14.314493,47.008984 14.297761,47.720585 14.044729,48.780045 
	C13.820210,49.340885 13.706448,49.555279 13.384165,50.065216 
	C12.731832,50.930019 12.255554,51.474247 11.637075,52.388039 
	C10.918568,53.318947 10.306011,53.801140 9.216980,54.299690 
	C6.437989,54.783684 4.061963,56.206020 1.318790,54.270054 
z"/>
<path fill="#A7DBA3" opacity="1.000000" stroke="none" 
	d="
M25.337193,4.231394 
	C25.086033,3.201330 25.042883,2.468151 24.999866,1.367486 
	C29.689257,1.000000 34.378513,1.000000 39.533882,1.000000 
	C40.536144,1.606680 40.911514,2.285187 40.886486,3.507281 
	C39.846214,5.443177 38.538559,6.687232 36.817917,8.037962 
	C34.258636,8.751078 32.017025,8.726882 29.397652,8.518284 
	C28.533348,8.426995 28.046923,8.336205 27.246929,8.015974 
	C25.832048,6.995540 26.173037,5.559741 25.337193,4.231394 
z"/>
<path fill="#439AB5" opacity="1.000000" stroke="none" 
	d="
M1.000000,54.437500 
	C3.389560,53.664307 5.779119,53.328613 8.577890,52.990765 
	C10.198236,53.926483 11.886826,54.123787 13.035530,55.815559 
	C13.847262,57.458958 13.643523,58.815502 13.509220,60.580940 
	C13.504155,62.482746 13.115282,63.766861 11.353414,64.768578 
	C11.000000,65.000000 10.500000,65.000000 10.250000,65.000000 
	C9.244147,64.093529 8.277515,63.496552 6.932197,62.866493 
	C5.699222,62.172726 6.558450,59.305084 3.866242,60.877159 
	C2.959732,61.354000 2.301121,61.456738 1.305393,61.164520 
	C1.000000,58.958332 1.000000,56.916668 1.000000,54.437500 
z"/>
<path fill="#A9DCA3" opacity="1.000000" stroke="none" 
	d="
M38.261024,64.671158 
	C34.307091,65.000000 30.614182,65.000000 26.460636,65.000000 
	C24.644827,64.258949 23.898329,63.156796 24.005466,61.211540 
	C24.181578,60.380657 24.396526,59.947819 24.901585,59.256485 
	C26.105167,57.708477 27.313784,56.964741 29.352133,57.250481 
	C31.977127,57.340233 34.251583,57.218853 36.795525,58.120636 
	C38.664471,60.083908 39.647591,61.972691 38.261024,64.671158 
z"/>
<path fill="#3788BA" opacity="1.000000" stroke="none" 
	d="
M64.660233,11.725680 
	C65.000000,13.066669 65.000000,14.133339 65.000000,15.600004 
	C64.179268,16.719883 63.665195,17.640762 63.196877,18.893503 
	C63.118477,19.324406 63.113152,19.501328 63.199974,19.939735 
	C63.662460,20.686487 64.106369,21.103374 64.766479,21.768185 
	C65.000000,22.444445 65.000000,22.888889 65.000000,23.666668 
	C64.709259,24.476353 64.411911,24.948547 63.797028,25.701008 
	C61.858295,26.710207 60.189369,26.645205 58.124622,26.037203 
	C53.340450,18.502535 53.340450,18.502535 60.625404,11.342733 
	C62.160862,10.636821 63.272274,10.741514 64.660233,11.725680 
z"/>
<path fill="#439BB4" opacity="1.000000" stroke="none" 
	d="
M9.239965,12.807037 
	C6.593527,12.689095 4.196519,12.368634 1.399755,12.024087 
	C1.000000,10.285642 1.000000,8.571282 1.000000,6.428462 
	C1.179403,5.856994 1.358806,5.713989 1.876808,5.514344 
	C3.932936,5.918806 5.872667,7.785888 7.284913,4.445418 
	C8.394895,3.611435 9.320238,3.398268 10.666594,3.828103 
	C12.328518,5.525906 11.904594,7.399617 12.027291,9.561136 
	C11.888066,11.514730 10.585505,11.960504 9.239965,12.807037 
z"/>
<path fill="#A6DBA3" opacity="1.000000" stroke="none" 
	d="
M7.424231,39.956516 
	C6.731725,40.424770 6.119606,40.574772 5.206630,40.823097 
	C4.574559,41.308434 4.180622,41.614796 3.352431,41.907398 
	C2.466626,41.944847 1.998470,41.782619 1.288191,41.243729 
	C1.000000,36.975456 1.000000,32.950912 1.000000,28.463184 
	C2.561558,26.511927 4.165479,26.441759 6.043530,28.147083 
	C6.373402,28.655869 6.473500,28.873745 6.632662,29.437515 
	C6.580565,31.184090 5.477925,32.611965 6.973953,34.251015 
	C7.219131,34.732296 7.297014,34.935703 7.422084,35.462349 
	C7.591758,37.068794 8.237788,38.347202 7.424231,39.956516 
z"/>
<path fill="#3884B9" opacity="1.000000" stroke="none" 
	d="
M50.766037,1.231401 
	C51.750000,1.000000 52.500000,1.000000 53.625000,1.000000 
	C54.788849,1.848581 55.291504,2.807775 55.059937,4.415162 
	C54.817043,5.059216 54.677822,5.298780 54.236404,5.819921 
	C50.415955,8.409995 47.306259,12.167979 41.977966,9.191992 
	C41.159512,8.696663 40.759575,8.324371 40.203659,7.541037 
	C39.736084,6.373139 39.754219,5.570965 40.207413,4.403512 
	C40.521252,3.244903 40.490971,2.443330 40.771706,1.324038 
	C41.444447,1.000000 41.888889,1.000000 42.666668,1.000000 
	C43.313774,1.315862 43.627377,1.631896 44.173397,2.182363 
	C46.884541,4.902244 48.638935,2.736944 50.766037,1.231401 
z"/>
<path fill="#A7DBA3" opacity="1.000000" stroke="none" 
	d="
M64.691376,27.727234 
	C65.000000,31.030594 65.000000,34.061188 65.000000,37.545891 
	C64.482292,38.513920 64.045807,39.106346 63.138359,39.712227 
	C61.515099,40.065342 60.350922,39.701313 58.946114,38.881386 
	C58.527840,38.431244 58.393974,38.222610 58.155098,37.663456 
	C58.038921,37.074543 58.027760,36.836151 58.080399,36.252090 
	C58.950172,34.404510 60.089520,32.948978 58.643486,30.838650 
	C58.428421,30.280964 58.374870,30.040894 58.348106,29.420563 
	C58.471245,28.797583 58.567596,28.554869 58.906120,27.994528 
	C60.837189,26.286880 62.576519,26.083542 64.691376,27.727234 
z"/>
<path fill="#3F76B4" opacity="1.000000" stroke="none" 
	d="
M65.000000,51.550018 
	C63.629410,51.848301 62.592216,51.097195 61.667202,50.145184 
	C60.315327,48.753853 58.619820,47.456146 59.316860,45.176022 
	C60.076805,42.690128 62.282764,43.101860 64.595108,42.999878 
	C65.000000,45.700012 65.000000,48.400028 65.000000,51.550018 
z"/>
<path fill="#3786B9" opacity="1.000000" stroke="none" 
	d="
M54.258583,64.670364 
	C52.611111,65.000000 51.222221,65.000000 49.416664,65.000000 
	C48.397408,64.321304 47.617783,63.855068 46.728100,63.008423 
	C45.920212,59.941917 42.856636,61.823521 41.476845,59.850460 
	C41.038338,58.427498 41.373219,57.486885 42.357513,56.360886 
	C47.198273,53.769981 49.992004,56.645069 53.158920,59.700043 
	C53.982365,60.247665 54.363281,60.656750 54.823288,61.532806 
	C55.157665,62.794041 55.009933,63.600609 54.258583,64.670364 
z"/>
<path fill="#3786B9" opacity="1.000000" stroke="none" 
	d="
M11.333334,65.000000 
	C11.325563,63.900307 11.651127,62.800613 11.992646,61.354229 
	C16.372761,54.696030 17.631897,54.165089 23.491194,56.646133 
	C24.794102,59.451321 24.117891,61.848259 23.273430,64.624443 
	C23.000000,65.000000 22.500000,65.000000 22.250000,65.000000 
	C21.541830,64.537338 21.085035,64.073181 20.270945,63.527840 
	C17.319420,61.050079 15.687661,64.232544 13.263929,64.789246 
	C12.555555,65.000000 12.111111,65.000000 11.333334,65.000000 
z"/>
<path fill="#87CFA4" opacity="1.000000" stroke="none" 
	d="
M65.000000,27.625000 
	C63.192635,27.982103 61.371601,27.862835 59.334091,28.878992 
	C58.755917,29.474773 58.511578,29.900755 57.936539,30.512749 
	C57.128090,30.849115 56.631916,30.876770 55.773384,30.654667 
	C54.231571,29.511995 53.063660,28.495596 53.306068,26.346870 
	C53.940449,24.984489 54.878910,24.635641 56.261528,24.342371 
	C56.876152,24.320820 57.121811,24.362591 57.697289,24.580238 
	C59.731991,24.778538 61.436874,24.800959 63.566391,24.781324 
	C64.185349,24.681469 64.379684,24.623667 64.787003,24.782932 
	C65.000000,25.750000 65.000000,26.500000 65.000000,27.625000 
z"/>
<path fill="#77C8A4" opacity="1.000000" stroke="none" 
	d="
M6.288539,30.173763 
	C5.043362,28.159002 3.423055,27.980505 1.360328,27.997581 
	C1.000000,27.250000 1.000000,26.500000 1.000000,25.375000 
	C3.036433,24.995535 5.072867,24.991072 7.545290,24.968060 
	C8.501305,24.953823 9.004708,25.048082 9.821091,25.447788 
	C10.538249,26.050283 10.830591,26.496956 11.121265,27.408775 
	C11.253897,28.689226 11.022969,29.481850 10.160786,30.454126 
	C8.696573,31.244179 7.601742,31.202211 6.288539,30.173763 
z"/>
<path fill="#84CDA4" opacity="1.000000" stroke="none" 
	d="
M38.333332,65.000000 
	C37.995144,63.034477 37.325138,61.255287 36.239807,59.263126 
	C35.217621,58.173298 34.592407,57.266380 34.622093,55.641975 
	C35.184166,53.909691 35.827793,52.682610 37.405205,51.679707 
	C38.063969,51.513657 38.338627,51.506058 38.991993,51.653793 
	C40.801842,52.933533 40.324890,54.781380 41.114532,56.560879 
	C40.554295,59.394707 42.114685,62.056194 40.249584,64.709938 
	C39.555553,65.000000 39.111111,65.000000 38.333332,65.000000 
z"/>
<path fill="#47A0B2" opacity="1.000000" stroke="none" 
	d="
M40.333336,65.000000 
	C39.969452,62.584846 39.938904,60.169689 39.924461,57.373924 
	C40.351360,55.556919 40.300869,53.933990 41.981689,52.735046 
	C42.609482,52.663300 42.867020,52.717957 43.400078,53.059494 
	C44.211895,54.387337 44.165627,55.399265 43.275658,56.698601 
	C42.721809,57.813610 42.416645,58.611561 42.074608,59.728722 
	C42.410030,60.442207 42.729820,60.875252 43.109154,61.736340 
	C43.282688,62.968632 43.048630,63.721088 42.264427,64.693024 
	C41.555553,65.000000 41.111111,65.000000 40.333336,65.000000 
z"/>
<path fill="#466DB0" opacity="1.000000" stroke="none" 
	d="
M60.686527,1.217835 
	C62.251995,1.829342 65.314812,-0.962960 65.000000,3.500000 
	C64.127289,5.102339 63.755310,6.557673 62.235390,7.590886 
	C61.648743,7.765842 61.400200,7.792023 60.779625,7.744678 
	C59.677082,7.339498 59.168659,6.789515 58.740341,5.694994 
	C58.594212,4.808204 58.589134,4.295530 58.712173,3.406562 
	C59.102757,2.284784 59.694004,1.816708 60.686527,1.217835 
z"/>
<path fill="#4AA3B1" opacity="1.000000" stroke="none" 
	d="
M60.692825,54.253300 
	C62.071316,54.021206 63.136356,54.019131 64.600700,54.008526 
	C65.000000,56.041668 65.000000,58.083332 65.000000,60.562500 
	C64.810173,61.150517 64.620338,61.301029 64.072449,61.524361 
	C63.219105,61.535999 62.761417,61.368092 62.058929,60.858376 
	C61.166119,59.513454 60.072830,58.720287 59.734734,57.038132 
	C59.664188,55.850742 59.898628,55.127529 60.692825,54.253300 
z"/>
<path fill="#4AA2B2" opacity="1.000000" stroke="none" 
	d="
M60.768669,7.255859 
	C61.060249,7.020416 61.506607,7.001089 61.729450,6.985475 
	C62.633896,6.319453 63.411499,5.856250 64.681793,5.866652 
	C65.000000,7.714359 65.000000,9.428718 65.000000,11.571538 
	C63.932426,12.002268 62.864857,12.004535 61.079681,11.806814 
	C59.853867,11.002973 59.626099,10.302387 59.684052,9.144144 
	C59.867653,8.280030 60.117756,7.853619 60.768669,7.255859 
z"/>
<path fill="#52ACAD" opacity="1.000000" stroke="none" 
	d="
M23.375000,65.000000 
	C22.981110,62.638313 22.962219,60.276623 22.919147,57.473396 
	C22.312048,56.255997 22.189793,55.410625 22.803568,54.154961 
	C26.746510,54.975201 26.204874,57.643417 25.388836,60.834206 
	C25.494150,62.370739 25.664536,63.459816 25.917461,64.774445 
	C25.250000,65.000000 24.500000,65.000000 23.375000,65.000000 
z"/>
<path fill="#4C66AC" opacity="1.000000" stroke="none" 
	d="
M65.000000,21.571537 
	C63.931637,22.008564 62.863277,22.017130 61.394325,22.015759 
	C60.173740,21.010725 59.925945,19.927389 60.736977,18.354336 
	C62.109730,17.352175 63.232414,16.715010 64.677551,16.038921 
	C65.000000,17.714357 65.000000,19.428717 65.000000,21.571537 
z"/>
<path fill="#466DB0" opacity="1.000000" stroke="none" 
	d="
M50.666668,1.000000 
	C48.358860,6.476917 46.462383,7.117061 43.170464,3.276070 
	C44.654942,1.485465 46.974770,2.847566 48.753654,1.205399 
	C49.444447,1.000000 49.888889,1.000000 50.666668,1.000000 
z"/>
<path fill="#466DB0" opacity="1.000000" stroke="none" 
	d="
M62.684189,59.758259 
	C63.207279,60.248844 63.408707,60.473816 63.816971,60.813278 
	C64.233948,61.170975 64.464882,61.396446 64.844498,61.814453 
	C64.736679,63.268898 66.085014,65.612228 62.500000,65.000000 
	C61.582409,64.628761 61.093830,64.449409 60.154594,64.311951 
	C59.586128,63.964020 59.398689,63.762436 59.047432,63.177361 
	C58.774452,60.374908 59.556511,58.894711 62.684189,59.758259 
z"/>
<path fill="#4AA3B1" opacity="1.000000" stroke="none" 
	d="
M60.562500,1.000000 
	C60.724773,1.475547 60.449551,1.951094 60.036797,2.665109 
	C59.369526,3.644585 58.678257,4.261522 57.992500,5.323836 
	C57.545063,5.698325 57.340740,5.818418 56.790733,6.031769 
	C55.701717,6.179038 55.022888,5.996220 54.194672,5.282961 
	C53.987904,3.929770 53.996601,2.864399 54.002647,1.399514 
	C56.041668,1.000000 58.083332,1.000000 60.562500,1.000000 
z"/>
<path fill="#466DB0" opacity="1.000000" stroke="none" 
	d="
M13.375000,65.000000 
	C15.407280,62.743179 16.703566,57.791698 21.724859,61.773270 
	C20.534914,63.839317 18.200994,63.506950 16.260906,64.789391 
	C15.250000,65.000000 14.500000,65.000000 13.375000,65.000000 
z"/>
<path fill="#466DB0" opacity="1.000000" stroke="none" 
	d="
M2.342950,6.228737 
	C1.980910,6.013409 1.490461,6.006294 1.245230,6.003147 
	C1.658496,4.398366 -0.268528,2.279628 2.500000,1.000000 
	C3.415046,1.370737 3.901221,1.549627 4.837555,1.682901 
	C5.406057,2.024525 5.594197,2.223512 5.948037,2.802693 
	C6.245297,5.595125 5.467161,7.056502 2.342950,6.228737 
z"/>
<path fill="#466DB0" opacity="1.000000" stroke="none" 
	d="
M1.000000,61.500000 
	C1.486453,60.730984 1.972905,60.461967 2.704186,60.061096 
	C4.974784,58.896515 5.709092,59.968601 5.996137,62.160866 
	C5.973327,62.772644 5.937479,63.014442 5.732207,63.578259 
	C5.003137,64.437119 4.282170,64.493408 3.283997,64.784966 
	C-0.085014,65.612228 1.263320,63.268898 1.000000,61.500000 
z"/>
<path fill="#4AA2B2" opacity="1.000000" stroke="none" 
	d="
M10.997060,3.625608 
	C10.209515,4.299061 9.422017,4.597409 8.321854,4.944952 
	C6.284329,5.063206 5.969153,3.654205 5.191042,2.260996 
	C4.979169,2.013548 5.000167,2.003376 4.989360,2.011943 
	C4.773927,1.846048 4.569303,1.671588 4.682339,1.248564 
	C6.714358,1.000000 8.428717,1.000000 10.571537,1.000000 
	C10.999036,1.750168 10.998072,2.500336 10.997060,3.625608 
z"/>
<path fill="#525DA8" opacity="1.000000" stroke="none" 
	d="
M47.659184,61.685997 
	C48.331684,62.764603 48.640732,63.561745 48.974892,64.679443 
	C47.285641,65.000000 45.571285,65.000000 43.428463,65.000000 
	C42.348434,64.212891 42.527660,63.292358 42.816738,62.000919 
	C44.421150,60.598190 45.829880,60.411053 47.659184,61.685997 
z"/>
<path fill="#545AA7" opacity="1.000000" stroke="none" 
	d="
M18.238953,4.309825 
	C16.693169,3.743951 16.060095,2.928698 15.994353,1.337440 
	C17.714357,1.000000 19.428717,1.000000 21.571537,1.000000 
	C22.146286,1.168574 22.292572,1.337149 22.216187,1.755733 
	C21.993515,2.005744 21.956833,2.479722 21.945452,2.717147 
	C21.010834,3.889751 20.159878,4.981227 18.238953,4.309825 
z"/>
<path fill="#545AA7" opacity="1.000000" stroke="none" 
	d="
M16.428463,65.000000 
	C17.116819,62.947746 18.777941,61.850510 21.534435,62.062111 
	C21.917591,62.805851 21.943907,63.536552 21.985111,64.633629 
	C20.285643,65.000000 18.571283,65.000000 16.428463,65.000000 
z"/>
<path fill="#4E62AB" opacity="1.000000" stroke="none" 
	d="
M4.261751,21.645386 
	C3.258321,22.015564 2.505430,22.020321 1.376270,22.012539 
	C1.000000,20.611111 1.000000,19.222221 1.000000,17.416666 
	C1.814216,17.236732 2.628432,17.473465 3.735841,17.844128 
	C4.828098,18.985319 5.075151,20.073374 4.261751,21.645386 
z"/>
<path fill="#4AA3B1" opacity="1.000000" stroke="none" 
	d="
M54.428463,65.000000 
	C53.998066,64.250137 53.996132,63.500278 53.992847,62.375481 
	C54.455845,61.279503 55.149742,60.928898 56.366241,60.780468 
	C58.305740,60.990269 58.854034,62.242619 59.769833,63.675339 
	C60.031269,63.967640 60.001312,63.999729 60.018562,63.985538 
	C60.235786,64.149963 60.435768,64.328568 60.317871,64.753586 
	C58.285641,65.000000 56.571285,65.000000 54.428463,65.000000 
z"/>
<path fill="#545AA7" opacity="1.000000" stroke="none" 
	d="
M48.571537,1.000000 
	C47.848930,3.209953 46.225216,4.224739 43.434887,3.001414 
	C43.097958,2.497521 43.072662,2.069776 43.023682,1.321015 
	C44.714359,1.000000 46.428715,1.000000 48.571537,1.000000 
z"/>
<path fill="#4E62AB" opacity="1.000000" stroke="none" 
	d="
M4.269372,47.670181 
	C3.232898,48.331974 2.436983,48.642761 1.320535,48.976776 
	C1.000000,47.611111 1.000000,46.222221 1.000000,44.416664 
	C1.445122,43.622345 1.959632,43.426727 2.951623,43.526070 
	C4.652628,44.582451 5.184354,45.762344 4.269372,47.670181 
z"/>
<path fill="#4AA3B1" opacity="1.000000" stroke="none" 
	d="
M6.729136,62.073502 
	C8.574637,62.030743 9.798171,62.474258 9.972453,64.648010 
	C8.611111,65.000000 7.222222,65.000000 5.416667,65.000000 
	C4.788292,64.833733 4.576584,64.667458 4.675085,64.242691 
	C4.985295,63.984200 5.000586,63.998226 4.992348,63.994820 
	C5.541918,63.430275 5.743288,62.589787 6.729136,62.073502 
z"/>
<path fill="#3B7CB7" opacity="1.000000" stroke="none" 
	d="
M65.000000,5.666667 
	C64.197975,6.298732 63.395954,6.597465 62.273109,6.933028 
	C62.224499,5.566628 63.256622,4.861549 64.711685,4.140080 
	C65.000000,4.444445 65.000000,4.888889 65.000000,5.666667 
z"/>
<path fill="#87CFA4" opacity="1.000000" stroke="none" 
	d="
M62.778976,39.267288 
	C63.478481,38.686863 63.959400,38.399284 64.720161,38.055855 
	C65.000000,38.750000 65.000000,39.500000 65.000000,40.625000 
	C64.562325,40.975765 64.124641,40.951523 63.360138,40.891632 
	C62.671776,40.498447 62.504288,40.070095 62.778976,39.267288 
z"/>
<path fill="#388BB9" opacity="1.000000" stroke="none" 
	d="
M3.235004,43.589329 
	C2.539609,43.923981 2.099648,43.944187 1.329843,43.982197 
	C1.000000,43.250000 1.000000,42.500000 1.000000,41.375000 
	C1.466879,40.958866 1.933758,40.917732 2.748707,40.932838 
	C3.594548,41.687885 3.761394,42.443687 3.235004,43.589329 
z"/>
<path fill="#3786B9" opacity="1.000000" stroke="none" 
	d="
M42.867905,61.830147 
	C43.097328,62.763905 43.060112,63.508957 43.011448,64.626999 
	C43.000000,65.000000 42.500000,65.000000 42.250000,65.000000 
	C42.002453,64.240005 42.004906,63.480015 42.019226,62.340202 
	C42.221153,61.854065 42.411213,61.747749 42.867905,61.830147 
z"/>
<path fill="#54AEAD" opacity="1.000000" stroke="none" 
	d="
M40.750000,1.000000 
	C40.938595,1.815699 40.877193,2.631397 40.725868,3.846648 
	C40.405590,4.275984 40.175236,4.305767 39.657272,4.138896 
	C39.533028,3.208115 39.696388,2.473990 39.929874,1.369932 
	C40.000000,1.000000 40.500000,1.000000 40.750000,1.000000 
z"/>
<path fill="#3A86B8" opacity="1.000000" stroke="none" 
	d="
M4.703889,64.036827 
	C4.989778,64.153465 4.994262,64.322731 4.999373,64.746002 
	C4.555555,65.000000 4.111111,65.000000 3.333333,65.000000 
	C3.474160,64.696480 3.948322,64.392967 4.703889,64.036827 
z"/>
<path fill="#3A86B8" opacity="1.000000" stroke="none" 
	d="
M60.333332,65.000000 
	C60.003983,64.828575 60.007969,64.657143 60.023884,64.228531 
	C60.556824,64.179581 61.077839,64.387817 61.799423,64.798035 
	C61.555553,65.000000 61.111111,65.000000 60.333332,65.000000 
z"/>
<path fill="#3A86B8" opacity="1.000000" stroke="none" 
	d="
M4.666667,1.000000 
	C4.998386,1.170067 4.996771,1.340134 4.986855,1.765355 
	C4.454676,1.813868 3.930799,1.607227 3.203461,1.200293 
	C3.444444,1.000000 3.888889,1.000000 4.666667,1.000000 
z"/>
<path fill="#3A86B8" opacity="1.000000" stroke="none" 
	d="
M65.000000,61.750000 
	C64.728638,61.817719 64.485466,61.603451 64.133331,61.154846 
	C64.163666,60.956867 64.331131,60.961239 64.749298,60.982803 
	C65.000000,61.000000 65.000000,61.500000 65.000000,61.750000 
z"/>
<path fill="#47A0B2" opacity="1.000000" stroke="none" 
	d="
M65.000000,24.750000 
	C64.828873,24.968227 64.657745,24.936455 64.238823,24.821976 
	C64.176781,24.527441 64.391205,24.350300 64.817146,24.103924 
	C65.000000,24.000000 65.000000,24.500000 65.000000,24.750000 
z"/>
<path fill="#3B7CB7" opacity="1.000000" stroke="none" 
	d="
M22.187675,1.866029 
	C21.988949,1.838084 21.984383,1.670423 21.989908,1.251381 
	C22.000000,1.000000 22.500000,1.000000 22.750000,1.000000 
	C22.830353,1.273090 22.624298,1.515195 22.187675,1.866029 
z"/>
<path fill="#4AA2B2" opacity="1.000000" stroke="none" 
	d="
M11.942543,17.346184 
	C11.968376,17.001627 11.964881,16.508339 11.967775,16.261707 
	C12.410235,14.252054 13.823090,13.617075 15.671597,13.052228 
	C18.566847,14.457564 19.932522,12.690669 21.319159,11.008879 
	C22.344618,9.765143 22.624405,7.944467 24.590820,7.071102 
	C27.097891,8.970880 25.033524,11.335219 25.404840,13.858685 
	C25.236952,15.443993 24.228439,16.228008 23.756821,17.645699 
	C23.641455,18.907370 23.616299,19.839783 23.256083,21.098389 
	C22.676231,22.661013 21.847843,23.612925 20.624195,24.741501 
	C19.360600,25.464966 18.359909,25.712833 16.908752,25.526306 
	C16.284956,25.389370 16.037821,25.329411 15.451628,25.106777 
	C14.924147,24.785402 14.735722,24.626707 14.337427,24.170589 
	C13.647566,22.876287 13.760323,21.571627 12.385149,20.655924 
	C11.665745,19.525539 11.708517,18.615973 11.942543,17.346184 
z"/>
<path fill="#4FA9AF" opacity="1.000000" stroke="none" 
	d="
M15.833235,12.729265 
	C16.012047,15.201839 14.796356,16.063688 12.349167,16.004147 
	C11.127507,15.149922 10.284345,14.284771 9.215858,13.214588 
	C9.033175,11.444226 9.484421,10.198647 11.675180,9.995749 
	C13.243373,10.790938 14.454629,11.625367 15.833235,12.729265 
z"/>
<path fill="#77C8A4" opacity="1.000000" stroke="none" 
	d="
M23.755470,15.285866 
	C23.866571,12.442186 23.991278,10.041595 24.878479,7.353395 
	C24.945875,6.201081 24.986702,5.444114 25.078358,4.310828 
	C26.317354,4.253179 26.939228,5.044401 27.097956,6.579289 
	C28.794210,10.462003 28.368874,13.595499 24.822800,16.221375 
	C24.157713,16.077023 23.928400,15.897866 23.755470,15.285866 
z"/>
<path fill="#466DB0" opacity="1.000000" stroke="none" 
	d="
M17.964565,4.387770 
	C19.015432,3.777795 20.136456,3.440016 21.595774,3.028405 
	C21.715866,3.775975 21.497662,4.597377 21.142519,5.709824 
	C20.615561,6.378341 20.151789,6.529435 19.291998,6.247498 
	C18.658062,5.580553 18.346390,5.120260 17.964565,4.387770 
z"/>
<path fill="#3B7CB7" opacity="1.000000" stroke="none" 
	d="
M19.044567,6.288842 
	C19.422148,6.028199 19.874561,6.015553 20.666279,6.001888 
	C20.647060,7.130429 20.244122,8.103666 19.044567,6.288842 
z"/>
<path fill="#47A0B2" opacity="1.000000" stroke="none" 
	d="
M51.863899,45.636383 
	C52.191498,46.824463 52.392147,47.656925 52.801365,48.737972 
	C53.144367,49.196152 53.278805,49.405746 53.368271,49.987816 
	C52.498432,51.649494 51.492680,52.790577 50.096283,54.102020 
	C48.181400,55.012047 46.600243,55.052383 44.675373,54.121452 
	C43.148182,52.644527 43.215065,50.931267 42.638176,49.031204 
	C42.473797,46.441254 42.296310,44.238537 43.977028,42.012703 
	C44.704899,41.386059 45.198101,41.169140 46.136616,41.044563 
	C48.993885,41.555939 50.144119,43.688965 51.863899,45.636383 
z"/>
<path fill="#439AB5" opacity="1.000000" stroke="none" 
	d="
M57.310612,61.773960 
	C56.284317,61.973907 55.520222,61.985645 54.373814,61.998962 
	C53.719471,61.834759 53.480865,61.630016 53.137211,61.194351 
	C52.022324,59.935154 51.358299,58.748928 51.656475,56.829781 
	C52.361664,54.723465 53.956604,54.186577 55.679501,53.193764 
	C57.485470,53.181553 58.953728,53.376381 60.714127,53.797249 
	C61.002991,54.771221 60.999714,55.519154 60.993874,56.641399 
	C59.667942,58.401520 58.574657,59.959431 57.310612,61.773960 
z"/>
<path fill="#51AAAE" opacity="1.000000" stroke="none" 
	d="
M55.815323,52.785881 
	C55.965996,54.545307 55.529903,55.803543 53.335636,56.000862 
	C51.330757,56.107914 50.418907,55.213062 49.959679,53.384373 
	C50.028873,51.491810 50.436333,50.212963 52.642685,50.030830 
	C53.595577,50.019043 54.129108,50.204784 54.783043,50.809715 
	C55.192448,51.541840 55.402943,52.063438 55.815323,52.785881 
z"/>
<path fill="#54AEAD" opacity="1.000000" stroke="none" 
	d="
M51.995697,45.996044 
	C49.632252,46.247303 48.692474,44.334698 47.181419,42.741959 
	C46.942245,41.958950 47.134842,41.511353 47.883320,40.970318 
	C49.653446,40.398056 51.176079,40.539860 52.965958,40.013577 
	C53.800762,39.822651 54.282883,39.815479 55.094875,40.052731 
	C55.596863,40.361980 55.769394,40.526825 55.987816,41.046638 
	C55.824547,41.841187 55.615379,42.280754 55.213730,42.877655 
	C54.130165,43.853180 53.286594,44.719967 52.217804,45.788651 
	C52.008003,46.006310 52.000549,46.000092 51.995697,45.996044 
z"/>
<path fill="#74C7A4" opacity="1.000000" stroke="none" 
	d="
M62.658520,38.917370 
	C63.002949,39.393127 63.008335,39.811817 63.023521,40.543243 
	C60.988258,40.979492 58.943199,41.103001 56.465927,41.314064 
	C56.033714,41.401615 56.027588,41.121162 56.023296,40.980968 
	C54.866615,38.468689 56.410114,38.098839 58.590317,37.974876 
	C60.096069,38.313797 61.207771,38.587048 62.658520,38.917370 
z"/>
<path fill="#439AB5" opacity="1.000000" stroke="none" 
	d="
M52.332253,45.940796 
	C52.195103,44.560249 52.862286,43.509190 54.692154,43.089485 
	C54.794346,44.449108 54.129669,45.498760 52.332253,45.940796 
z"/>
<path fill="#439AB5" opacity="1.000000" stroke="none" 
	d="
M54.908054,50.721924 
	C54.456688,50.814457 53.931419,50.608677 53.202263,50.202721 
	C52.999969,49.833248 53.001564,49.663960 53.006546,49.240612 
	C53.842365,49.180759 54.524220,49.566124 54.908054,50.721924 
z"/>
<path fill="#3E95B7" opacity="1.000000" stroke="none" 
	d="
M11.688944,17.194828 
	C12.309327,17.786629 12.650278,18.571630 13.010756,19.687710 
	C13.633580,21.129759 13.399034,22.149315 12.364637,23.377968 
	C11.226540,24.002926 10.416497,23.994923 9.312378,23.338995 
	C9.520815,21.033257 9.755941,18.910667 11.688944,17.194828 
z"/>
<path fill="#5FB9A8" opacity="1.000000" stroke="none" 
	d="
M8.884963,23.279381 
	C9.757690,23.030043 10.497536,23.017530 11.607407,22.992195 
	C12.705742,22.397861 13.514204,22.189138 14.784470,22.699404 
	C15.144606,22.945534 15.128054,23.393496 15.100689,23.615952 
	C14.370398,26.832119 12.147010,26.756514 9.437090,26.250450 
	C8.803149,25.829475 8.539805,25.604927 8.128870,25.164946 
	C8.238213,24.471743 8.495147,23.993975 8.884963,23.279381 
z"/>
<path fill="#3F76B4" opacity="1.000000" stroke="none" 
	d="
M4.321831,21.904202 
	C4.011491,20.935591 4.011771,19.860378 4.020542,18.381611 
	C6.227639,18.935675 6.565702,20.187223 4.321831,21.904202 
z"/>
<path fill="#47A0B2" opacity="1.000000" stroke="none" 
	d="
M13.042919,49.344780 
	C12.977910,48.227913 12.987464,47.481812 13.004780,46.362709 
	C13.557505,44.666588 14.685039,43.753178 15.723326,42.346252 
	C16.724377,41.773952 17.473515,41.672642 18.634693,41.737350 
	C20.262537,42.273727 21.401091,42.923378 22.617374,44.163612 
	C23.401434,45.438103 23.583958,46.465725 23.410408,47.935734 
	C23.287392,48.565941 23.218859,48.812752 22.978853,49.399109 
	C21.677727,50.765163 21.440613,52.362877 20.118561,53.689888 
	C18.856380,54.415977 17.849678,54.489605 16.440657,54.151615 
	C14.264749,53.154671 13.937153,51.266533 13.042919,49.344780 
z"/>
<path fill="#4FA9AF" opacity="1.000000" stroke="none" 
	d="
M12.727297,48.981628 
	C14.855632,49.274330 15.880082,50.354347 15.980074,52.642063 
	C16.204651,55.381756 15.203190,56.628326 12.373466,56.262577 
	C10.473608,55.978096 9.207084,55.545418 9.019864,53.345192 
	C9.292733,52.518295 9.598362,52.047977 9.961830,51.298107 
	C10.540672,50.473217 11.068463,49.934559 11.805220,49.204750 
	C12.004099,49.003681 12.486239,48.989246 12.727297,48.981628 
z"/>
<path fill="#8CD0A4" opacity="1.000000" stroke="none" 
	d="
M7.692337,40.526711 
	C5.916512,39.450836 5.999113,38.062714 6.005392,36.373970 
	C6.797847,35.257347 7.694683,34.679398 9.267027,34.709675 
	C11.387503,35.327579 12.835858,36.518639 14.920582,37.193359 
	C15.531387,37.845642 15.723116,38.305988 15.765741,39.187080 
	C15.263052,41.274830 13.704000,41.392303 11.680213,41.968300 
	C10.010675,41.660267 9.025753,41.219460 7.692337,40.526711 
z"/>
<path fill="#3F76B4" opacity="1.000000" stroke="none" 
	d="
M3.123463,44.233341 
	C3.005086,43.176018 3.030602,42.448269 3.076447,41.354797 
	C3.499123,40.932549 3.901469,40.876022 4.604794,40.870461 
	C4.520463,43.195160 7.395192,45.577217 4.353453,47.897327 
	C3.774993,46.868427 3.521174,45.715672 3.123463,44.233341 
z"/>
<path fill="#52ACAD" opacity="1.000000" stroke="none" 
	d="
M15.686617,42.305916 
	C16.012928,44.430328 15.594058,45.752758 13.372492,45.958618 
	C13.012541,45.989704 13.001321,45.998646 12.998421,46.001244 
	C12.291235,45.225506 11.425794,44.585041 10.908125,43.298073 
	C10.867031,42.984241 10.911757,42.539108 10.953677,42.320091 
	C10.995598,42.101070 10.931283,41.926128 10.934159,41.832977 
	C12.362094,40.809582 13.790560,40.958256 15.686617,42.305916 
z"/>
<path fill="#439AB5" opacity="1.000000" stroke="none" 
	d="
M10.615332,43.071144 
	C11.886539,43.485538 12.631096,44.219875 12.941477,45.685928 
	C11.847925,45.305225 8.895315,46.275944 10.615332,43.071144 
z"/>
<path fill="#439AB5" opacity="1.000000" stroke="none" 
	d="
M11.707415,49.083366 
	C11.824513,49.835793 11.445274,50.516476 10.312548,50.933182 
	C10.181977,50.174114 10.556571,49.488819 11.707415,49.083366 
z"/>
<path fill="#BCE4A0" opacity="1.000000" stroke="none" 
	d="
M28.801281,7.322615 
	C31.139086,6.374492 33.207321,5.873983 35.659691,6.938112 
	C36.796497,7.474491 37.201794,8.199439 37.383743,9.500144 
	C36.998936,11.871015 36.624432,13.818770 35.635124,16.013805 
	C33.637009,17.448483 31.971910,16.957663 29.950005,15.951386 
	C28.485800,14.614379 28.528446,13.060502 27.906445,11.326238 
	C27.955648,9.796602 27.946909,8.655727 28.801281,7.322615 
z"/>
<path fill="#84CDA4" opacity="1.000000" stroke="none" 
	d="
M36.260117,10.284992 
	C36.005993,9.246447 36.007912,8.497159 36.011620,7.373156 
	C37.065533,6.114688 37.076523,4.254368 39.091644,3.977683 
	C39.582626,3.988165 39.795589,4.034091 40.322250,4.163108 
	C40.654362,4.939895 40.672771,5.633590 40.692036,6.676875 
	C40.893875,7.753972 41.029408,8.487824 40.759312,9.597830 
	C39.944023,10.859176 39.018562,11.195107 37.549892,11.069870 
	C36.954697,10.844404 36.735428,10.709327 36.260117,10.284992 
z"/>
<path fill="#90D2A4" opacity="1.000000" stroke="none" 
	d="
M28.748650,6.993229 
	C29.059864,8.069482 29.046274,9.135200 29.029671,10.600655 
	C28.929420,12.700496 29.197649,14.437949 28.368443,16.430170 
	C27.901243,17.507133 27.391094,18.078093 26.398163,18.719044 
	C24.961250,19.206720 23.965223,19.060452 22.900993,17.983942 
	C22.671555,17.092876 22.854425,16.637981 23.626293,16.131573 
	C26.960718,13.947401 25.820288,10.398872 27.075390,7.307147 
	C27.563452,6.932250 27.993649,6.957473 28.748650,6.993229 
z"/>
<path fill="#3A91B8" opacity="1.000000" stroke="none" 
	d="
M12.020769,56.458351 
	C13.707866,55.865593 14.610911,54.643188 15.761814,53.216728 
	C17.069769,52.993027 18.141033,52.988338 19.613964,52.978996 
	C20.636639,52.439526 21.343002,52.182785 22.521378,52.480671 
	C23.014421,52.867352 23.154408,53.086918 23.130836,53.661186 
	C22.958342,54.769726 22.949404,55.523563 22.917715,56.654629 
	C18.600685,55.922337 15.854970,58.935883 12.354492,60.934166 
	C12.010460,59.628479 12.012318,58.249424 12.020769,56.458351 
z"/>
<path fill="#3A86B8" opacity="1.000000" stroke="none" 
	d="
M7.148858,61.697243 
	C6.511336,62.579128 6.002586,63.147350 5.238973,63.853493 
	C4.905905,62.588139 5.244298,61.034687 3.281551,60.060066 
	C3.549062,58.224033 4.661512,56.966923 6.525628,57.678757 
	C8.323898,58.365448 7.860006,59.968285 7.148858,61.697243 
z"/>
<path fill="#BCE4A0" opacity="1.000000" stroke="none" 
	d="
M36.029327,54.573612 
	C36.026291,56.071930 36.018898,57.135857 36.011898,58.598667 
	C33.930317,59.571404 31.848545,60.154858 29.379847,59.065750 
	C28.413139,58.042774 27.735106,57.109367 27.688805,55.479408 
	C28.303074,53.709023 28.418879,52.213470 29.430984,50.591087 
	C31.087999,49.372917 32.523739,49.190792 34.445545,49.942753 
	C36.240402,51.181221 36.154373,52.653797 36.029327,54.573612 
z"/>
<path fill="#69C1A5" opacity="1.000000" stroke="none" 
	d="
M23.210045,54.290848 
	C22.967279,54.015884 22.930365,53.557362 22.921068,53.327549 
	C21.756071,52.235935 20.753651,51.307091 21.622684,49.301029 
	C21.839603,48.947491 22.026066,48.935078 22.118557,48.948338 
	C23.732435,47.913834 24.831379,48.686600 26.037819,50.179165 
	C26.546967,51.888741 26.762125,53.251915 27.302685,54.955536 
	C27.605246,56.802498 26.488554,57.933777 26.350590,59.709492 
	C26.051468,60.379349 25.865070,60.654984 25.501217,61.106140 
	C24.934280,58.977814 24.710358,56.627838 23.210045,54.290848 
z"/>
<path fill="#84CDA4" opacity="1.000000" stroke="none" 
	d="
M26.403921,59.929092 
	C26.152182,58.692276 26.066496,57.280838 25.971882,55.446526 
	C26.123699,54.847660 26.284443,54.671658 26.778976,54.367233 
	C27.595955,54.201813 28.056868,54.289936 28.744427,54.745316 
	C28.998087,56.071701 29.005978,57.138275 29.019936,58.604965 
	C27.969585,58.475700 27.176968,58.810894 26.403921,59.929092 
z"/>
<path fill="#3B92B8" opacity="1.000000" stroke="none" 
	d="
M57.998104,24.407385 
	C57.859425,24.819805 57.691746,24.883495 57.261616,25.006416 
	C55.469494,24.972992 53.977821,24.706741 52.253662,23.848602 
	C51.296684,22.748213 50.637321,21.898890 50.513016,20.358774 
	C50.317986,18.850172 50.080112,17.749058 50.625168,16.244335 
	C51.639748,13.584909 53.649433,12.403428 55.833561,10.846523 
	C57.692123,10.465086 59.131981,10.312437 60.683517,11.695627 
	C61.011299,11.982863 61.004448,11.998730 61.000542,12.008253 
	C60.682137,12.773836 60.583828,13.886801 60.018703,14.229126 
	C55.749672,16.815092 56.293358,20.295595 57.998104,24.407385 
z"/>
<path fill="#3F76B4" opacity="1.000000" stroke="none" 
	d="
M60.677860,18.097813 
	C60.990562,19.060411 60.994083,20.131479 60.995670,21.604183 
	C58.780083,21.069195 58.442314,19.823975 60.677860,18.097813 
z"/>
<path fill="#3A86B8" opacity="1.000000" stroke="none" 
	d="
M4.975010,2.388697 
	C5.882983,2.831136 6.786797,3.648724 7.849899,4.730230 
	C7.110349,9.792311 6.380628,10.000400 2.168710,6.309743 
	C4.150822,6.009750 5.090545,4.874187 4.975010,2.388697 
z"/>
<path fill="#BEE5A0" opacity="1.000000" stroke="none" 
	d="
M10.311626,36.281822 
	C8.910458,36.035118 7.852705,36.029480 6.398465,36.034973 
	C6.003283,35.871494 6.004590,35.696880 6.003956,35.260353 
	C4.938471,33.697720 4.844506,32.278774 5.754365,30.406759 
	C6.022304,30.043425 6.030388,29.937702 6.030512,29.882328 
	C7.051699,29.823315 8.072763,29.819679 9.476578,29.788456 
	C10.821460,29.080921 11.842921,28.612459 13.474903,29.004036 
	C14.118514,29.315983 14.352859,29.485256 14.840412,30.005684 
	C15.585581,31.706575 16.054663,33.061234 15.918252,34.953106 
	C15.710147,35.626884 15.575018,35.877979 15.104137,36.391521 
	C13.382805,37.064308 12.008132,37.132271 10.311626,36.281822 
z"/>
<path fill="#B1DFA2" opacity="1.000000" stroke="none" 
	d="
M5.693688,30.149071 
	C6.015138,31.419287 6.007972,32.795151 6.001411,34.584724 
	C3.431849,33.733788 3.321580,32.138847 5.693688,30.149071 
z"/>
<path fill="#3A91B8" opacity="1.000000" stroke="none" 
	d="
M41.718613,8.299025 
	C46.212776,9.760447 49.166615,7.092434 52.658112,5.065730 
	C54.141697,6.093100 54.885468,7.341577 54.464630,9.458242 
	C53.935329,12.275475 52.359161,13.537549 49.715912,14.270370 
	C48.109859,14.596405 46.934177,14.616612 45.315445,14.410316 
	C43.409550,13.983667 42.096111,13.368042 41.110489,11.604944 
	C40.899975,10.289619 41.034256,9.429091 41.718613,8.299025 
z"/>
<path fill="#439AB5" opacity="1.000000" stroke="none" 
	d="
M53.184090,10.216639 
	C52.987282,8.586071 52.994759,7.205685 53.000507,5.411008 
	C52.998779,4.996716 53.489231,4.992914 53.734215,4.994028 
	C54.736313,4.997611 55.493423,5.000080 56.628754,5.004715 
	C58.631325,5.712135 58.779457,7.892407 60.730717,8.721660 
	C60.975624,9.701817 60.989212,10.462460 61.007050,11.602983 
	C59.633087,11.994163 58.254875,12.005463 56.463528,12.020344 
	C54.892506,11.967417 53.986572,11.480172 53.184090,10.216639 
z"/>
<path fill="#54AEAD" opacity="1.000000" stroke="none" 
	d="
M41.843712,7.779418 
	C42.030354,8.737172 42.033104,9.486047 42.032379,10.609210 
	C41.884556,11.129157 41.740208,11.274816 41.289551,11.387393 
	C40.416687,11.014317 40.119720,10.514964 39.958076,9.582775 
	C39.994324,8.718102 40.168816,8.124555 40.518101,7.278736 
	C41.015202,7.207824 41.337513,7.389182 41.843712,7.779418 
z"/>
<path fill="#BFE59F" opacity="1.000000" stroke="none" 
	d="
M55.718567,29.707977 
	C56.472004,29.951002 56.909382,29.963869 57.674694,29.989496 
	C58.165333,29.854824 58.328045,29.707390 58.724342,29.792143 
	C58.957935,30.024330 58.986172,30.009819 58.982857,30.025230 
	C60.772743,31.670183 61.375809,33.420708 59.251678,35.698887 
	C58.976921,35.977234 58.975117,36.435085 58.987297,36.663689 
	C58.308525,37.781338 57.320606,37.961136 55.912819,38.065536 
	C51.116718,35.465023 47.887772,39.571495 43.634666,40.131767 
	C42.689209,40.025856 42.180077,39.827637 41.383820,39.249893 
	C39.242531,36.291695 40.239796,33.291294 40.148403,29.997059 
	C40.361980,29.303070 40.490513,29.040155 40.852158,28.408409 
	C41.300179,27.848000 41.515079,27.656422 42.121204,27.292465 
	C44.410240,27.109083 46.325607,26.896687 48.480240,27.800606 
	C48.971256,28.142960 49.142071,28.297253 49.492706,28.695637 
	C50.085686,29.843645 50.609032,29.495907 51.456772,28.928360 
	C53.094200,28.436348 54.251637,28.939831 55.718567,29.707977 
z"/>
<path fill="#87CFA4" opacity="1.000000" stroke="none" 
	d="
M54.631073,36.788746 
	C56.067600,36.867176 57.133671,36.890148 58.599609,36.902702 
	C58.996643,37.083538 58.993809,37.274784 58.987667,37.753288 
	C58.053696,38.785294 57.123024,39.530048 56.105682,40.557785 
	C55.570953,40.879166 55.122898,40.917557 54.338425,40.973228 
	C53.260506,40.979267 52.531219,40.917519 51.663517,40.186882 
	C51.266323,39.415325 51.223091,38.924740 51.431488,38.076309 
	C52.278736,36.875954 53.188499,36.585941 54.631073,36.788746 
z"/>
<path fill="#AFDEA2" opacity="1.000000" stroke="none" 
	d="
M59.293770,35.922554 
	C59.425529,34.229076 59.908543,32.481728 59.040024,30.372379 
	C63.079060,31.561861 62.809052,33.556293 59.293770,35.922554 
z"/>
<path fill="#AFDEA2" opacity="1.000000" stroke="none" 
	d="
M58.967709,29.778534 
	C58.957935,30.024330 58.480129,30.018681 58.241379,30.010469 
	C58.156975,29.729082 58.356640,29.494482 58.793976,29.169649 
	C58.986336,29.040840 58.977482,29.532740 58.967709,29.778534 
z"/>
<path fill="#3A91B8" opacity="1.000000" stroke="none" 
	d="
M49.540886,53.030006 
	C50.867367,53.858212 51.770027,54.678158 52.826347,55.766296 
	C52.987423,57.413902 52.994831,58.793316 53.000488,60.587559 
	C49.620571,60.398525 47.902668,55.974434 43.419518,57.012779 
	C43.035530,55.970768 43.044083,54.925880 43.061043,53.489525 
	C43.215508,52.957779 43.361572,52.817505 43.759796,52.846619 
	C45.713657,53.017925 47.415356,53.019840 49.540886,53.030006 
z"/>
<path fill="#4272B2" opacity="1.000000" stroke="none" 
	d="
M43.538193,62.015663 
	C42.950527,62.009071 42.766506,61.999290 42.306789,61.974945 
	C42.028614,61.535145 42.026138,61.109905 42.030701,60.366302 
	C44.136990,59.741821 46.569939,57.884720 47.945335,61.634888 
	C46.662376,61.982464 45.302109,61.997471 43.538193,62.015663 
z"/>
<path fill="#9ED8A4" opacity="1.000000" stroke="none" 
	d="
M55.945610,29.640480 
	C54.623520,29.976547 53.212421,30.014956 51.379082,30.074677 
	C50.542290,30.392607 50.084812,30.516066 49.300797,30.191488 
	C49.024227,29.945072 49.041962,29.467279 49.042160,29.228218 
	C48.623207,27.491179 48.907719,26.219631 50.627625,25.127438 
	C51.893002,24.816126 52.698231,24.979610 53.680283,25.821020 
	C54.571125,27.221869 55.213860,28.282347 55.945610,29.640480 
z"/>
<path fill="#60BAA8" opacity="1.000000" stroke="none" 
	d="
M54.261375,26.107937 
	C53.135185,26.144571 52.341984,26.127750 51.151413,26.126255 
	C49.744270,25.736967 48.674259,25.397465 48.595104,23.667801 
	C49.651569,21.823614 50.932339,21.928398 52.670956,22.761965 
	C54.213779,23.501129 55.400105,24.028618 56.792797,24.810877 
	C56.197563,25.395260 55.395958,25.724871 54.261375,26.107937 
z"/>
<path fill="#95D4A4" opacity="1.000000" stroke="none" 
	d="
M14.417483,30.120031 
	C12.896025,29.963228 11.791956,29.928707 10.273607,29.827526 
	C9.904447,29.072989 9.949566,28.385113 10.013748,27.349670 
	C11.279309,26.056395 12.704302,25.957731 14.583557,26.308773 
	C15.706047,27.121660 15.918897,27.930859 15.644445,29.259300 
	C15.268324,29.857063 15.051599,30.049688 14.417483,30.120031 
z"/>
<path fill="#8CD0A4" opacity="1.000000" stroke="none" 
	d="
M15.436491,27.005672 
	C13.635104,27.010651 12.248514,27.007301 10.447368,27.003029 
	C9.767591,26.846582 9.534544,26.652449 9.200083,26.236866 
	C10.863018,25.445860 12.659542,24.837692 14.764696,24.033966 
	C15.073324,23.838409 15.558202,23.940788 15.798222,24.002331 
	C16.796291,25.093981 16.841402,26.078651 15.436491,27.005672 
z"/>
<path fill="#A9DCA3" opacity="1.000000" stroke="none" 
	d="
M36.257919,54.805931 
	C35.103703,54.090305 35.010548,52.910522 34.917580,50.990906 
	C35.004433,47.647503 35.134384,45.012516 36.243488,42.209938 
	C36.698921,41.816917 36.915352,41.702545 37.498928,41.576584 
	C39.570557,42.207561 39.930988,44.210541 41.632965,45.373436 
	C42.060051,46.122360 42.197422,46.593834 42.270737,47.451256 
	C42.220219,48.055202 42.170422,48.292191 41.968742,48.855835 
	C41.065685,50.515568 39.327824,50.369316 38.191139,51.714558 
	C37.474873,52.851292 36.978512,53.727581 36.257919,54.805931 
z"/>
<path fill="#69C1A5" opacity="1.000000" stroke="none" 
	d="
M40.654228,49.178093 
	C40.887161,48.953972 40.948566,48.480019 40.986671,48.244118 
	C41.758053,47.388447 42.460644,47.516155 43.312737,48.458244 
	C44.095528,50.254597 43.588444,51.408108 42.310699,52.733620 
	C41.963345,54.415386 41.786255,55.758739 40.233257,56.820637 
	C38.872543,55.755898 39.050354,54.251419 39.039993,52.412067 
	C38.876671,50.831329 39.287491,49.927376 40.654228,49.178093 
z"/>
<path fill="#98D5A4" opacity="1.000000" stroke="none" 
	d="
M40.580097,48.977219 
	C40.416866,49.841625 39.946571,50.729282 39.258652,51.826790 
	C38.862869,52.025993 38.684715,52.015350 38.238892,51.989853 
	C37.137146,49.744308 38.460583,49.183178 40.580097,48.977219 
z"/>
<path fill="#54AEAD" opacity="1.000000" stroke="none" 
	d="
M42.299545,53.041534 
	C42.323792,51.910057 42.605209,50.789196 42.939659,49.325294 
	C43.150681,48.808739 43.308670,48.635220 43.700790,48.724548 
	C45.110470,50.030312 44.849106,51.211178 44.138359,52.719528 
	C44.011955,53.016006 43.539436,53.049389 43.304443,53.073723 
	C42.898537,53.082756 42.727623,53.067451 42.299545,53.041534 
z"/>
<path fill="#3B7CB7" opacity="1.000000" stroke="none" 
	d="
M60.977654,8.621195 
	C58.668449,9.101611 56.931400,8.572821 57.019608,5.387416 
	C57.006977,5.006882 57.022766,5.021115 57.033306,5.024682 
	C57.692116,4.427354 58.440742,4.266332 59.620884,4.743217 
	C60.184414,5.512132 60.410427,6.055139 60.848343,6.809280 
	C61.037922,7.447350 61.015598,7.874283 60.977654,8.621195 
z"/>
<path fill="#398CB9" opacity="1.000000" stroke="none" 
	d="
M59.961384,4.625308 
	C59.229572,4.984032 58.500744,4.998938 57.407883,5.021047 
	C57.239326,3.765489 58.028236,3.146800 59.574051,2.950108 
	C59.920967,3.362882 59.942669,3.822186 59.961384,4.625308 
z"/>
<path fill="#3A86B8" opacity="1.000000" stroke="none" 
	d="
M57.277794,62.168564 
	C56.976505,59.586227 57.070545,57.318401 60.617805,57.036453 
	C61.621254,57.811768 62.251198,58.607826 62.957298,59.701515 
	C60.856808,59.977650 59.920422,61.109573 60.034260,63.594299 
	C58.913208,63.875256 58.179268,63.174122 57.277794,62.168564 
z"/>
<path fill="#74C7A4" opacity="1.000000" stroke="none" 
	d="
M19.750923,24.001696 
	C19.958937,22.486498 20.309406,21.538763 21.841137,21.058426 
	C24.683649,19.784052 25.682188,21.265451 26.360655,23.776525 
	C26.425402,25.331942 26.031034,26.343414 25.218136,27.643293 
	C24.791769,28.179234 24.588011,28.366817 24.003963,28.725821 
	C23.071964,29.016935 22.520855,29.014336 21.591614,28.719967 
	C19.973858,27.421444 18.724108,26.296305 19.750923,24.001696 
z"/>
<path fill="#A7DBA3" opacity="1.000000" stroke="none" 
	d="
M19.575167,23.710064 
	C20.028978,25.100691 20.801149,26.197248 21.912125,27.490801 
	C22.691820,29.745983 21.181519,30.213112 19.939569,30.088535 
	C18.420193,29.936125 17.028009,30.594898 15.247782,30.140648 
	C14.959309,29.190733 14.980547,28.464943 15.011740,27.376577 
	C15.353815,26.245052 15.685937,25.476101 16.028151,24.385511 
	C17.086634,23.964302 18.135023,23.864733 19.575167,23.710064 
z"/>
<path fill="#98D5A4" opacity="1.000000" stroke="none" 
	d="
M25.271486,25.234138 
	C24.961746,23.311781 24.696369,21.763952 22.482170,21.064995 
	C22.147167,19.950714 22.137522,18.908634 22.137310,17.475616 
	C22.296989,16.985090 22.447237,16.885504 22.792130,16.973589 
	C23.765951,17.431416 24.545128,17.701571 25.641350,17.980186 
	C27.752926,18.489815 28.286661,19.872335 28.441559,21.908615 
	C28.447126,22.798075 28.403887,23.302217 28.197495,24.158382 
	C27.924828,24.714409 27.776020,24.915031 27.314369,25.318714 
	C26.513136,25.638212 26.028599,25.630726 25.271486,25.234138 
z"/>
<path fill="#51AAAE" opacity="1.000000" stroke="none" 
	d="
M15.315718,22.698696 
	C14.352154,22.961575 13.559703,22.977613 12.372342,22.986515 
	C12.235603,22.182020 12.493773,21.384668 12.891112,20.303051 
	C14.496497,20.176197 16.175028,20.119244 15.315718,22.698696 
z"/>
<path fill="#5FB9A8" opacity="1.000000" stroke="none" 
	d="
M23.164795,16.974670 
	C22.986774,17.161259 22.565771,17.120102 22.356258,17.102390 
	C20.889086,15.539259 22.039965,15.225389 23.527941,14.895869 
	C23.846218,15.041062 23.880585,15.229100 23.948824,15.701681 
	C23.769403,16.253510 23.556110,16.520798 23.164795,16.974670 
z"/>
<path fill="#AFDEA2" opacity="1.000000" stroke="none" 
	d="
M54.872353,36.536400 
	C54.411495,37.615139 53.591663,37.895889 52.325981,37.953682 
	C51.037487,38.258114 50.668026,39.010300 50.365578,40.206425 
	C50.026886,40.884666 49.755253,41.224316 49.212685,41.763374 
	C48.523113,42.072941 48.068962,42.154701 47.294884,42.370430 
	C46.573376,42.433651 46.171799,42.362907 45.463772,42.283436 
	C44.582024,42.382355 44.095051,42.221897 43.515095,41.428833 
	C43.236168,40.515450 43.300865,39.986488 43.764389,39.146034 
	C47.378754,37.109943 50.421379,34.012482 54.872353,36.536400 
z"/>
<path fill="#74C7A4" opacity="1.000000" stroke="none" 
	d="
M43.765633,40.684330 
	C44.325058,41.208843 44.557892,41.513428 44.974030,42.046364 
	C44.758377,44.252243 44.359432,46.229774 43.947701,48.597355 
	C43.934917,48.987404 43.463955,48.977604 43.228321,48.979927 
	C42.521675,48.690804 42.050659,48.399353 41.302208,48.058060 
	C40.993229,47.570656 40.961689,47.133102 40.916321,46.366875 
	C39.848572,44.889057 38.820358,43.728405 39.183182,41.608215 
	C39.425472,41.014473 39.574173,40.799644 40.054146,40.373669 
	C41.443542,39.855984 42.457016,40.001167 43.765633,40.684330 
z"/>
<path fill="#74C7A4" opacity="1.000000" stroke="none" 
	d="
M49.360790,42.009521 
	C48.971085,41.543560 48.964905,41.095936 48.972618,40.312683 
	C49.676601,39.420738 50.444283,39.256741 51.639610,39.750648 
	C52.517670,40.183418 53.052620,40.385708 53.794785,40.789249 
	C52.791683,42.193729 51.237751,41.986645 49.360790,42.009521 
z"/>
<path fill="#98D5A4" opacity="1.000000" stroke="none" 
	d="
M25.344467,51.222038 
	C24.517923,50.092693 23.845211,49.358299 22.502541,49.015800 
	C22.173708,47.909100 22.136370,46.856598 22.112328,45.408531 
	C22.105875,43.193539 23.090723,41.879673 24.626358,40.502487 
	C25.428253,40.188808 25.916849,40.158699 26.762463,40.342903 
	C27.305149,40.625927 27.497238,40.782536 27.894306,41.247688 
	C29.256241,44.040752 26.580606,46.764431 28.560488,49.568253 
	C28.377602,50.416473 28.107033,50.826756 27.422966,51.365738 
	C26.601654,51.650303 26.113434,51.625191 25.344467,51.222038 
z"/>
<path fill="#74C7A4" opacity="1.000000" stroke="none" 
	d="
M24.891535,40.781479 
	C24.975182,42.867672 24.641752,44.322697 22.448601,44.950634 
	C20.898422,44.885109 19.892361,44.379223 19.069553,42.994686 
	C18.572147,42.248032 18.424576,41.755692 18.627632,40.830647 
	C19.950047,39.204243 21.308819,38.446747 23.474764,38.992989 
	C24.310511,39.458084 24.649698,39.868176 24.891535,40.781479 
z"/>
<path fill="#51AAAE" opacity="1.000000" stroke="none" 
	d="
M21.531181,48.982063 
	C22.125507,50.102535 22.411411,51.257576 22.804543,52.755180 
	C22.188143,53.067352 21.464512,53.036968 20.378258,52.990463 
	C20.030235,51.536835 18.274355,49.559315 21.531181,48.982063 
z"/>
<path fill="#BCE4A0" opacity="1.000000" stroke="none" 
	d="
M18.646833,40.765831 
	C18.857079,41.372372 18.852678,41.749565 18.885942,42.402775 
	C18.228939,42.724304 17.534269,42.769821 16.495926,42.850433 
	C16.152252,42.885529 16.330191,42.862759 16.359299,42.777916 
	C16.049936,42.418156 15.920498,42.059975 16.087299,41.346409 
	C16.352743,40.910477 16.496733,40.760315 16.926702,40.482559 
	C17.635641,40.304913 18.041309,40.371025 18.646833,40.765831 
z"/>
<path fill="#BCE4A0" opacity="1.000000" stroke="none" 
	d="
M14.703598,29.937075 
	C16.846483,28.075573 19.304712,28.398138 21.869034,27.987490 
	C22.477680,27.764717 22.851665,27.769241 23.505537,27.804693 
	C25.813614,29.958439 23.899866,32.130306 23.764347,34.640125 
	C23.547678,35.485386 23.437563,35.970512 23.199909,36.803131 
	C21.632965,38.914375 19.467999,39.484539 17.305958,40.740334 
	C17.032492,40.974167 16.999929,40.998543 17.016821,40.988808 
	C16.232861,41.626659 15.520677,41.561882 15.016826,40.308994 
	C15.114001,39.469418 15.100289,39.035076 15.062914,38.275589 
	C14.637597,37.588566 14.478011,37.140476 14.780952,36.300400 
	C15.001087,35.827496 15.000761,35.660366 15.000086,35.242546 
	C15.516429,33.725380 15.738740,32.502220 14.253135,31.270180 
	C14.017105,30.869814 14.013390,30.695417 14.004884,30.259384 
	C14.000094,29.997747 14.469126,29.957626 14.703598,29.937075 
z"/>
<path fill="#74C7A4" opacity="1.000000" stroke="none" 
	d="
M14.760726,39.935440 
	C15.582357,40.213852 16.037001,40.523941 16.762678,40.906555 
	C16.885609,41.418720 16.737507,41.858368 16.488905,42.495544 
	C14.825268,42.441528 13.262128,42.189983 11.318012,41.839134 
	C11.553238,40.103687 12.967566,40.023857 14.760726,39.935440 
z"/>
<path fill="#A6DBA3" opacity="1.000000" stroke="none" 
	d="
M14.582457,35.994049 
	C15.009987,36.429695 15.018561,36.864765 15.033192,37.625141 
	C13.363085,37.834881 11.475340,38.533871 10.106214,36.372849 
	C11.366640,36.024990 12.765071,36.009232 14.582457,35.994049 
z"/>
<path fill="#CEEB9C" opacity="1.000000" stroke="none" 
	d="
M29.604969,14.951313 
	C31.460545,15.238140 32.905346,15.463186 34.690002,15.828478 
	C35.211094,16.182785 35.392338,16.396847 35.690216,17.016865 
	C35.851528,18.332510 35.521717,19.084311 34.480522,19.910748 
	C32.987663,20.492800 31.852623,20.479593 30.308161,20.074726 
	C28.873804,19.236332 28.349993,18.251390 28.201569,16.633274 
	C28.399326,15.660854 28.720701,15.219583 29.604969,14.951313 
z"/>
<path fill="#A7DBA3" opacity="1.000000" stroke="none" 
	d="
M35.398674,17.200653 
	C35.080273,16.934628 35.060276,16.451757 35.045063,16.210239 
	C35.025818,14.181162 34.880013,12.375849 35.847420,10.343019 
	C36.004074,9.995733 36.497135,9.996903 36.743584,10.003368 
	C38.957241,11.585195 39.351154,13.693855 38.863731,16.427532 
	C38.498890,17.014200 38.305462,17.216496 37.723640,17.574581 
	C36.770195,17.799971 36.230743,17.712442 35.398674,17.200653 
z"/>
<path fill="#A7DBA3" opacity="1.000000" stroke="none" 
	d="
M30.007469,14.655152 
	C29.745893,15.180330 29.510757,15.387051 29.174511,15.825841 
	C28.653910,16.399818 28.196260,16.535585 27.347439,16.221756 
	C27.547588,14.515811 28.066042,13.013843 28.805576,11.256132 
	C29.906969,11.935276 29.993166,13.104420 30.007469,14.655152 
z"/>
<path fill="#95D4A4" opacity="1.000000" stroke="none" 
	d="
M38.384850,17.171007 
	C37.682056,14.920762 37.337711,12.863769 36.991699,10.408304 
	C37.773697,9.883383 38.557369,9.756933 39.580437,9.471067 
	C40.128254,9.720950 40.436680,10.130249 40.812492,10.798145 
	C41.687225,11.834367 42.077469,12.819888 42.280106,14.299334 
	C42.057491,15.868560 41.397194,16.682190 39.950661,17.298409 
	C39.285614,17.391003 39.014458,17.377632 38.384850,17.171007 
z"/>
<path fill="#B5E1A1" opacity="1.000000" stroke="none" 
	d="
M26.820084,16.215141 
	C27.475227,16.016294 27.921320,16.014811 28.703053,16.015877 
	C29.327271,16.803440 29.615852,17.588449 29.955032,18.684254 
	C30.155853,19.162029 30.306072,19.329010 30.577538,19.811363 
	C30.768072,20.823603 30.499191,21.459538 30.194475,22.425514 
	C29.895638,22.906160 29.742775,23.076612 29.288946,23.412401 
	C28.532976,23.665298 28.085356,23.641657 27.371120,23.287346 
	C26.767166,21.631166 26.438412,20.176319 26.034025,18.355057 
	C26.175941,17.463264 26.393490,16.937883 26.820084,16.215141 
z"/>
<path fill="#CEEB9C" opacity="1.000000" stroke="none" 
	d="
M34.988464,50.990738 
	C33.608135,50.983784 32.234802,50.982857 30.449036,50.976440 
	C29.836540,50.735832 29.636478,50.500717 29.311516,49.818558 
	C29.315910,46.915657 30.731497,45.793850 33.038647,46.151203 
	C35.237591,46.491798 35.818054,48.124870 35.210602,50.579407 
	C34.984436,50.985435 34.995457,50.996773 34.988464,50.990738 
z"/>
<path fill="#A9DCA3" opacity="1.000000" stroke="none" 
	d="
M29.778845,49.794609 
	C29.991346,50.009041 30.011927,50.490402 30.024265,50.730675 
	C29.835667,52.131660 29.634733,53.292370 29.211998,54.729103 
	C28.558596,54.996284 28.126995,54.987442 27.371639,54.969894 
	C26.166246,53.992489 25.932133,52.916000 26.763348,51.345169 
	C27.184586,50.720043 27.382669,50.483551 27.801123,50.137203 
	C28.123407,49.850460 28.259670,49.702343 28.690178,49.486702 
	C29.178396,49.472847 29.372370,49.526512 29.778845,49.794609 
z"/>
<path fill="#90D2A4" opacity="1.000000" stroke="none" 
	d="
M26.692682,50.988121 
	C27.026449,52.046467 27.032053,53.107628 27.042770,54.564987 
	C26.867245,54.972385 26.686602,54.983589 26.234455,55.009228 
	C25.077305,54.079643 25.000107,52.907078 25.039684,51.346664 
	C25.491112,50.988754 25.927814,50.989845 26.692682,50.988121 
z"/>
<path fill="#47A0B2" opacity="1.000000" stroke="none" 
	d="
M44.604256,13.307911 
	C45.980381,13.063714 47.078667,13.033729 48.589005,13.002592 
	C50.331676,13.371232 51.412155,14.044027 51.987671,15.733501 
	C52.036800,17.110970 52.017963,18.165781 51.992912,19.616165 
	C50.676357,21.372374 49.227348,22.536434 47.034492,23.263596 
	C44.003510,23.061434 42.809807,21.457127 42.523529,18.597519 
	C42.486019,16.919544 43.327984,15.915636 43.782795,14.414535 
	C44.048340,13.898266 44.187378,13.710195 44.604256,13.307911 
z"/>
<path fill="#4FA9AF" opacity="1.000000" stroke="none" 
	d="
M52.322403,15.884831 
	C50.522278,15.958290 49.212635,15.574594 49.030823,13.356684 
	C50.211983,12.170463 51.422901,11.339485 52.806816,10.237482 
	C54.122162,10.050301 55.265152,10.132876 55.936695,11.705355 
	C54.896652,13.253784 53.742912,14.483644 52.322403,15.884831 
z"/>
<path fill="#52ACAD" opacity="1.000000" stroke="none" 
	d="
M46.810810,22.293938 
	C48.467575,21.333855 49.885460,20.693680 51.645020,20.032619 
	C52.245564,20.807955 52.504429,21.604172 52.895378,22.687016 
	C51.867939,23.152681 50.708424,23.331722 49.270088,23.725716 
	C48.609371,24.362726 48.135647,24.541615 47.208221,24.308659 
	C46.556381,23.666952 46.464905,23.158247 46.810810,22.293938 
z"/>
<path fill="#CEEB9C" opacity="1.000000" stroke="none" 
	d="
M14.019247,31.396072 
	C15.682382,31.189075 17.904528,30.484739 18.338818,32.900833 
	C18.639637,34.574383 17.004539,34.784313 15.354368,34.977654 
	C14.122616,34.076981 13.995274,32.935123 14.019247,31.396072 
z"/>
<path fill="#60BAA8" opacity="1.000000" stroke="none" 
	d="
M44.625214,12.942941 
	C44.882095,13.093700 44.878628,13.507218 44.880943,13.713972 
	C44.512871,14.536012 44.174660,15.177750 43.186714,15.680531 
	C42.356899,15.813006 41.891521,15.724763 41.177288,15.278498 
	C40.896229,13.979876 40.889023,12.915479 40.880852,11.453913 
	C41.071190,11.043147 41.262497,11.029552 41.741352,10.999728 
	C42.808712,11.586393 43.588520,12.189287 44.625214,12.942941 
z"/>
<path fill="#F7F2A6" opacity="1.000000" stroke="none" 
	d="
M22.248554,35.227898 
	C21.867260,32.667103 22.071751,30.447344 23.680676,28.188354 
	C23.785423,27.835621 23.853518,27.847544 23.868324,27.878777 
	C24.897852,27.215855 25.679934,26.268080 26.796906,25.234522 
	C27.020134,25.027008 26.999409,24.999866 27.013210,25.009762 
	C27.495211,24.510408 27.992685,24.031942 28.802546,23.383785 
	C29.077717,23.174967 29.092686,23.115974 29.073627,23.092249 
	C29.371309,22.709635 29.732510,22.403151 30.481586,22.053827 
	C32.008263,21.933931 33.120884,22.445484 34.655888,22.408352 
	C35.714691,22.301538 36.418514,22.290455 37.459618,22.572588 
	C38.252178,22.820728 38.671478,23.037756 39.335396,23.535215 
	C39.959213,24.070826 40.288906,24.403442 40.803131,25.036392 
	C41.101784,25.525200 41.194359,25.734890 41.351093,26.279419 
	C41.458698,27.285662 41.453785,27.962477 41.792778,28.914446 
	C41.910583,32.053265 41.874947,34.895634 41.833977,38.159958 
	C42.147804,39.760361 41.286598,40.151165 40.185894,40.730583 
	C39.880424,40.875175 39.851143,40.834637 39.828053,40.844231 
	C39.627613,41.597790 39.227177,42.131252 38.183144,42.053810 
	C37.925980,41.807533 37.452663,41.848007 37.227207,41.922749 
	C36.594395,42.378040 36.154301,42.715954 35.291107,43.157742 
	C32.961819,43.562958 31.023878,43.580620 28.702108,43.120560 
	C28.100576,42.785927 27.884161,42.611359 27.403069,42.114464 
	C27.138391,41.792141 27.090816,41.382778 27.055202,41.179821 
	C26.192213,40.166191 25.249184,39.517326 23.935385,38.796700 
	C23.505112,38.431923 23.365696,38.250710 23.119989,37.744579 
	C22.962254,36.737743 22.867943,36.067791 22.248554,35.227898 
z"/>
<path fill="#AFDEA2" opacity="1.000000" stroke="none" 
	d="
M46.693047,23.772627 
	C47.473911,23.847942 47.906906,23.886421 48.665581,23.932783 
	C49.493008,24.504681 49.994751,25.068697 50.625271,25.887146 
	C50.310375,26.951052 49.866703,27.760519 49.232697,28.779573 
	C47.225216,28.887472 45.353710,29.325472 43.310802,28.211172 
	C42.690506,26.744074 42.956276,25.648859 44.063644,24.455761 
	C44.946213,23.834074 45.618256,23.670095 46.693047,23.772627 
z"/>
<path fill="#CEEB9C" opacity="1.000000" stroke="none" 
	d="
M48.801254,30.211609 
	C49.454224,29.974457 49.884224,30.003839 50.635536,30.064606 
	C50.953053,30.580252 50.975391,31.066410 50.940460,31.548416 
	C50.843555,32.885765 50.584648,34.147152 49.046783,34.572929 
	C48.340523,34.768467 47.743874,34.479137 47.437267,33.853931 
	C46.716774,32.384789 47.668617,31.426516 48.801254,30.211609 
z"/>
<path fill="#8CD0A4" opacity="1.000000" stroke="none" 
	d="
M40.300552,40.912064 
	C40.366245,40.238194 40.852066,39.601212 41.583263,38.773071 
	C42.308510,38.666775 42.788376,38.751633 43.634544,38.825584 
	C44.021420,39.280579 44.041996,39.746475 44.077396,40.558315 
	C42.968372,40.919155 41.844528,40.934052 40.300552,40.912064 
z"/>
<path fill="#8CD0A4" opacity="1.000000" stroke="none" 
	d="
M44.674339,24.741745 
	C44.487190,25.861532 43.967739,26.717850 43.227318,27.777004 
	C43.006344,27.979841 42.516804,27.923843 42.271584,27.900093 
	C41.851040,27.655445 41.675716,27.434547 41.409393,26.800175 
	C41.579758,24.567799 42.667595,24.058338 44.674339,24.741745 
z"/>
<path fill="#AFDEA2" opacity="1.000000" stroke="none" 
	d="
M41.780396,26.605162 
	C42.015079,26.933575 42.020336,27.122627 42.025978,27.594011 
	C42.013908,28.098129 42.001450,28.319916 41.967606,28.876301 
	C41.403343,28.637571 40.860466,28.064245 40.226517,27.208363 
	C40.261093,26.798416 40.386745,26.671024 40.767162,26.459087 
	C41.198273,26.404963 41.374626,26.435381 41.780396,26.605162 
z"/>
<path fill="#9BD6A4" opacity="1.000000" stroke="none" 
	d="
M51.988281,39.645607 
	C51.233906,39.985836 50.485088,39.990547 49.361397,39.986153 
	C49.338284,38.651978 49.516853,37.138443 51.764828,37.798622 
	C51.991608,38.414108 51.992725,38.862099 51.988281,39.645607 
z"/>
<path fill="#BEE5A0" opacity="1.000000" stroke="none" 
	d="
M34.756531,42.354103 
	C35.504501,42.112385 35.932137,42.077869 36.680763,42.020424 
	C36.836376,44.875637 37.613541,47.919460 35.249538,50.721588 
	C34.908104,49.479115 34.850693,47.886143 33.056488,47.390244 
	C31.467335,46.951012 30.618576,47.933640 30.068537,49.669968 
	C29.991346,50.009041 29.498856,50.002953 29.252626,49.998848 
	C27.765511,48.381485 27.108063,46.654682 28.053537,44.246613 
	C29.817347,41.371777 32.559055,44.061459 34.756531,42.354103 
z"/>
<path fill="#98D5A4" opacity="1.000000" stroke="none" 
	d="
M37.966095,42.177574 
	C38.387783,41.549194 38.849583,41.290859 39.558174,40.943176 
	C40.147137,42.332726 40.489307,43.811626 40.866989,45.664368 
	C38.975529,45.672504 38.098515,44.435612 37.966095,42.177574 
z"/>
<path fill="#D6EE9F" opacity="1.000000" stroke="none" 
	d="
M26.682514,25.017189 
	C26.794407,26.485643 26.090252,27.528706 24.222813,27.883190 
	C24.158253,27.125908 24.433372,26.341806 24.851425,25.274687 
	C25.444534,24.996902 25.894714,25.002138 26.682514,25.017189 
z"/>
<path fill="#D6EE9F" opacity="1.000000" stroke="none" 
	d="
M28.748051,23.135723 
	C28.586287,23.742344 28.094856,24.309721 27.315218,24.948378 
	C27.032598,24.588982 27.038185,24.158304 27.069843,23.406822 
	C27.536741,23.089500 27.977562,23.092989 28.748051,23.135723 
z"/>
<path fill="#B1DFA2" opacity="1.000000" stroke="none" 
	d="
M28.922848,42.773262 
	C28.992092,45.052742 28.996706,47.087852 29.003860,49.558853 
	C28.836576,49.995602 28.666754,49.996464 28.242039,49.997948 
	C24.118999,47.963192 26.799484,45.093128 27.087091,42.163368 
	C27.138391,41.792141 27.613663,41.842350 27.849640,41.879971 
	C28.276909,42.205078 28.537760,42.404655 28.922848,42.773262 
z"/>
<path fill="#D6EE9F" opacity="1.000000" stroke="none" 
	d="
M23.836946,38.266632 
	C25.477131,38.194004 26.486408,38.907654 26.955908,40.655670 
	C26.550087,41.004417 26.080582,41.031975 25.263046,41.122189 
	C24.673353,40.954754 24.431692,40.724659 24.057215,40.281326 
	C23.584112,39.624397 23.476599,39.130074 23.836946,38.266632 
z"/>
<path fill="#A6DBA3" opacity="1.000000" stroke="none" 
	d="
M24.001770,37.764565 
	C24.040770,38.419254 24.009510,38.890373 23.951324,39.714790 
	C22.485924,40.344429 21.047447,40.620770 19.235226,40.946140 
	C18.455301,41.003185 18.049128,41.011196 17.337723,40.996689 
	C17.602514,38.706959 19.509672,37.937859 21.700010,37.035599 
	C22.426819,36.625702 22.876181,36.524193 23.602499,36.913166 
	C23.828520,37.201588 23.931507,37.580986 24.001770,37.764565 
z"/>
<path fill="#D6EE9F" opacity="1.000000" stroke="none" 
	d="
M23.798666,36.884514 
	C23.430786,37.145847 23.033054,37.090103 22.336040,36.998413 
	C22.027704,36.520916 22.018648,36.079369 22.016895,35.305931 
	C22.868481,35.217503 23.575447,35.611301 23.798666,36.884514 
z"/>
<path fill="#BCE4A0" opacity="1.000000" stroke="none" 
	d="
M38.106293,24.036236 
	C37.091206,24.089401 36.426689,24.006058 35.429283,23.885719 
	C34.509396,23.383924 33.851585,23.004398 33.213791,22.069633 
	C32.911484,20.946812 33.051178,20.229248 33.757996,19.293043 
	C34.313866,18.509874 34.624428,18.013426 35.007629,17.225803 
	C35.504486,16.953959 35.928696,16.973289 36.672092,17.000938 
	C37.768452,17.899311 38.796654,18.511799 39.776241,19.694618 
	C40.009171,20.259800 40.068008,20.500900 40.123665,21.117165 
	C39.891628,22.519857 39.341736,23.325539 38.106293,24.036236 
z"/>
<path fill="#C2E69F" opacity="1.000000" stroke="none" 
	d="
M33.603363,19.004341 
	C34.001259,19.758268 33.999218,20.510210 33.995934,21.638248 
	C33.468548,22.651270 32.783615,22.859497 31.633644,22.622768 
	C30.541218,22.141279 30.154575,21.543728 30.022497,20.373686 
	C29.998186,19.832394 29.998930,19.664948 30.002655,19.246273 
	C31.071564,18.997484 32.137493,18.999922 33.603363,19.004341 
z"/>
<path fill="#B1DFA2" opacity="1.000000" stroke="none" 
	d="
M39.238392,19.786663 
	C37.730186,19.730415 37.113941,18.925838 37.014668,17.343451 
	C37.163704,17.004530 37.336136,16.999800 37.767487,16.986412 
	C38.206421,16.969940 38.386436,16.962128 39.078472,17.208000 
	C39.893848,18.169458 39.869408,18.864679 39.238392,19.786663 
z"/>
<path fill="#74C7A4" opacity="1.000000" stroke="none" 
	d="
M42.124451,26.458790 
	C42.009819,26.744524 41.522388,26.761135 41.278549,26.763775 
	C40.834530,26.684542 40.634350,26.602667 40.253555,26.251307 
	C39.757427,25.865349 39.497200,25.673780 39.182449,25.188244 
	C38.989883,23.895531 38.984646,22.829330 39.458458,21.491489 
	C40.078785,19.928045 40.019352,18.696133 39.214851,17.230152 
	C39.019154,16.978024 39.069996,16.964266 39.088028,16.943275 
	C39.596024,16.430759 40.085983,15.939233 40.739689,15.245989 
	C41.352634,15.042126 41.801830,15.039980 42.586956,15.040249 
	C43.561176,15.269788 43.869282,15.760256 43.981304,16.697903 
	C44.009457,18.979122 43.802891,21.078959 46.690952,21.906120 
	C47.050930,22.383217 47.052174,22.792408 47.047169,23.505531 
	C46.560165,24.162340 46.079414,24.515217 45.302650,24.936653 
	C43.934673,25.040331 42.868240,25.088558 42.124451,26.458790 
z"/>
<path fill="#BCE4A0" opacity="1.000000" stroke="none" 
	d="
M29.786140,20.253521 
	C30.299294,20.482840 30.601147,20.965839 30.957041,21.733850 
	C31.132734,22.190639 31.254385,22.362415 31.190201,22.789440 
	C30.570776,23.053036 30.137186,23.061380 29.379082,23.069122 
	C29.227995,22.214750 29.401419,21.360975 29.786140,20.253521 
z"/>
<path fill="#51AAAE" opacity="1.000000" stroke="none" 
	d="
M44.243767,16.931595 
	C43.663849,16.532726 43.364609,16.062231 42.994125,15.317200 
	C43.392979,14.719337 43.863071,14.396008 44.608208,13.996702 
	C45.347221,14.971712 46.186832,16.068556 44.243767,16.931595 
z"/>
<path fill="#DA464C" opacity="1.000000" stroke="none" 
	d="
M32.169914,37.668812 
	C28.372149,38.015347 27.119848,36.184723 27.336552,32.607025 
	C27.261473,31.874533 27.364910,31.573925 27.837997,31.166409 
	C28.019527,30.994768 28.088120,30.994392 28.090019,31.028637 
	C28.476368,30.666937 28.922329,30.360531 29.827047,30.046387 
	C31.819603,29.434780 33.440998,29.452816 35.446198,29.875870 
	C37.163269,30.860334 36.832024,32.440285 37.602524,33.959602 
	C37.516850,36.681221 36.107395,37.724709 33.490448,37.761444 
	C32.935024,37.696159 32.716450,37.642281 32.169914,37.668812 
z"/>
<path fill="#EC6347" opacity="1.000000" stroke="none" 
	d="
M36.504112,31.255852 
	C34.451294,31.047913 32.668846,31.020926 30.441349,30.992367 
	C29.536434,30.245142 29.993027,29.721334 30.683216,28.962051 
	C32.036579,28.328657 33.188839,28.583326 34.645214,28.397400 
	C36.329994,28.298466 37.143154,29.022264 37.675789,30.506283 
	C37.567059,31.231665 37.246231,31.446783 36.504112,31.255852 
z"/>
<path fill="#D6EE9F" opacity="1.000000" stroke="none" 
	d="
M29.324707,43.155685 
	C28.722364,42.832153 28.495825,42.607735 28.196739,42.130985 
	C30.122152,41.968239 32.158688,42.018887 34.636044,42.108215 
	C33.757412,44.821609 31.684486,43.938744 29.324707,43.155685 
z"/>
<path fill="#D6EE9F" opacity="1.000000" stroke="none" 
	d="
M31.289505,23.254707 
	C31.004309,22.873640 31.004251,22.702585 31.007637,22.275196 
	C31.756979,22.017807 32.502876,22.016752 33.621727,22.015018 
	C34.310211,22.452501 34.625736,22.890663 35.018829,23.588776 
	C33.922478,23.720724 32.748562,23.592724 31.289505,23.254707 
z"/>
<path fill="#8CD0A4" opacity="1.000000" stroke="none" 
	d="
M39.801273,20.852154 
	C39.867809,22.192707 39.683270,23.315369 39.285683,24.703701 
	C38.757919,24.826923 38.443211,24.684473 37.942116,24.357384 
	C38.064957,23.310556 38.374184,22.448366 38.829079,21.276747 
	C39.166561,20.856298 39.358379,20.745281 39.801273,20.852154 
z"/>
<path fill="#FBA862" opacity="1.000000" stroke="none" 
	d="
M36.261875,31.389353 
	C36.567596,31.013906 36.901447,30.952909 37.486145,30.841694 
	C37.807831,31.674122 37.878674,32.556770 37.861809,33.879963 
	C36.722794,33.763958 36.347198,32.824177 36.261875,31.389353 
z"/>
<path fill="#F6834E" opacity="1.000000" stroke="none" 
	d="
M34.600899,28.217381 
	C33.883694,28.550133 32.789738,28.776049 31.352268,29.009111 
	C30.798403,29.156065 30.588045,29.295874 30.102871,29.174875 
	C31.103487,27.607101 32.697674,28.044054 34.600899,28.217381 
z"/>
<path fill="#F27348" opacity="1.000000" stroke="none" 
	d="
M29.503620,28.961617 
	C30.024595,28.933487 30.221132,28.952904 30.713215,28.994289 
	C30.748024,29.506104 30.487288,29.995951 30.111427,30.738298 
	C29.573412,31.020290 29.150526,31.049780 28.409779,31.071075 
	C28.097101,30.189182 27.986423,29.254145 29.503620,28.961617 
z"/>
<path fill="#F6834E" opacity="1.000000" stroke="none" 
	d="
M32.169830,37.805637 
	C32.180988,37.670704 32.520020,37.592182 33.006325,37.631847 
	C32.934967,37.787376 32.716339,37.824715 32.169830,37.805637 
z"/>
<path fill="#F99556" opacity="1.000000" stroke="none" 
	d="
M27.788002,31.121933 
	C28.005325,31.329391 27.898106,31.630970 27.522013,32.069687 
	C27.416264,31.909615 27.486370,31.579355 27.788002,31.121933 
z"/>
<path fill="#8CD0A4" opacity="1.000000" stroke="none" 
	d="
M40.068031,26.219177 
	C40.324409,26.107735 40.550068,26.269615 40.892311,26.616940 
	C41.034710,26.766417 40.589043,26.872330 40.362244,26.899069 
	C40.135445,26.925808 40.063122,26.456533 40.068031,26.219177 
z"/>
<path fill="#A7DBA3" opacity="1.000000" stroke="none" 
	d="
M40.256668,20.831120 
	C39.873001,21.051369 39.693657,21.032696 39.244530,20.990669 
	C38.974747,20.967318 38.972393,20.496445 38.969273,20.261337 
	C38.978840,19.264196 38.991528,18.502163 39.011688,17.359077 
	C40.436028,17.809237 41.318687,18.853569 40.256668,20.831120 
z"/>
</svg>